<mxfile host="app.diagrams.net" agent="Mozilla/5.0 (Windows NT 10.0; Win64; x64) AppleWebKit/537.36 (KHTML, like Gecko) Chrome/135.0.0.0 Safari/537.36" version="27.0.6">
  <diagram name="Page-1" id="HUEnRrcwqeUd8FPlBjnv">
    <mxGraphModel dx="1783" dy="971" grid="1" gridSize="10" guides="1" tooltips="1" connect="1" arrows="1" fold="1" page="1" pageScale="1" pageWidth="850" pageHeight="1100" math="0" shadow="0">
      <root>
        <mxCell id="0" />
        <mxCell id="1" parent="0" />
        <mxCell id="VjNuqhSshOlq6rkJovFf-1" value="Airplane" style="rounded=0;whiteSpace=wrap;html=1;" vertex="1" parent="1">
          <mxGeometry x="517.5" y="535" width="82.5" height="50" as="geometry" />
        </mxCell>
        <mxCell id="VjNuqhSshOlq6rkJovFf-2" value="Flight&amp;nbsp;" style="rounded=0;whiteSpace=wrap;html=1;" vertex="1" parent="1">
          <mxGeometry x="920" y="190" width="90" height="30" as="geometry" />
        </mxCell>
        <mxCell id="VjNuqhSshOlq6rkJovFf-3" value="Leg Instance" style="rounded=0;whiteSpace=wrap;html=1;labelBorderColor=default;spacingTop=0;spacingLeft=0;spacing=2;" vertex="1" parent="1">
          <mxGeometry x="477.5" y="280" width="85" height="40" as="geometry" />
        </mxCell>
        <mxCell id="VjNuqhSshOlq6rkJovFf-4" value="Airport" style="rounded=0;whiteSpace=wrap;html=1;" vertex="1" parent="1">
          <mxGeometry x="170" y="190" width="120" height="60" as="geometry" />
        </mxCell>
        <mxCell id="VjNuqhSshOlq6rkJovFf-5" value="Flight Leg" style="rounded=0;whiteSpace=wrap;html=1;" vertex="1" parent="1">
          <mxGeometry x="470" y="190" width="120" height="60" as="geometry" />
        </mxCell>
        <mxCell id="VjNuqhSshOlq6rkJovFf-7" value="Airplane Type" style="rounded=0;whiteSpace=wrap;html=1;" vertex="1" parent="1">
          <mxGeometry x="167.5" y="530" width="120" height="60" as="geometry" />
        </mxCell>
        <mxCell id="VjNuqhSshOlq6rkJovFf-8" value="&lt;span style=&quot;color: rgba(0, 0, 0, 0); font-family: sans-serif; font-size: 16.5px; font-style: normal; font-variant-ligatures: common-ligatures; font-variant-caps: normal; font-weight: 400; letter-spacing: normal; orphans: 2; text-align: center; text-indent: 0px; text-transform: none; widows: 2; word-spacing: 0px; -webkit-text-stroke-width: 0px; white-space: pre; text-decoration-thickness: initial; text-decoration-style: initial; text-decoration-color: initial; float: none; display: inline !important;&quot;&gt;airport_code&lt;/span&gt;" style="ellipse;whiteSpace=wrap;html=1;" vertex="1" parent="1">
          <mxGeometry x="167.5" y="130" width="125" height="30" as="geometry" />
        </mxCell>
        <mxCell id="VjNuqhSshOlq6rkJovFf-9" value="" style="endArrow=none;html=1;rounded=0;entryX=0.5;entryY=1;entryDx=0;entryDy=0;exitX=0.5;exitY=0;exitDx=0;exitDy=0;" edge="1" parent="1" source="VjNuqhSshOlq6rkJovFf-4" target="VjNuqhSshOlq6rkJovFf-8">
          <mxGeometry width="50" height="50" relative="1" as="geometry">
            <mxPoint x="110" y="190" as="sourcePoint" />
            <mxPoint x="160" y="140" as="targetPoint" />
          </mxGeometry>
        </mxCell>
        <mxCell id="VjNuqhSshOlq6rkJovFf-10" value="City" style="ellipse;whiteSpace=wrap;html=1;" vertex="1" parent="1">
          <mxGeometry x="65" y="140" width="60" height="30" as="geometry" />
        </mxCell>
        <mxCell id="VjNuqhSshOlq6rkJovFf-11" value="State" style="ellipse;whiteSpace=wrap;html=1;" vertex="1" parent="1">
          <mxGeometry x="55" y="200" width="60" height="30" as="geometry" />
        </mxCell>
        <mxCell id="VjNuqhSshOlq6rkJovFf-12" value="Name" style="ellipse;whiteSpace=wrap;html=1;" vertex="1" parent="1">
          <mxGeometry x="50" y="255" width="80" height="40" as="geometry" />
        </mxCell>
        <mxCell id="VjNuqhSshOlq6rkJovFf-13" value="" style="endArrow=none;html=1;rounded=0;exitX=1;exitY=0;exitDx=0;exitDy=0;entryX=0;entryY=1;entryDx=0;entryDy=0;" edge="1" parent="1" source="VjNuqhSshOlq6rkJovFf-12" target="VjNuqhSshOlq6rkJovFf-4">
          <mxGeometry width="50" height="50" relative="1" as="geometry">
            <mxPoint x="170" y="310" as="sourcePoint" />
            <mxPoint x="220" y="260" as="targetPoint" />
          </mxGeometry>
        </mxCell>
        <mxCell id="VjNuqhSshOlq6rkJovFf-14" value="" style="endArrow=none;html=1;rounded=0;exitX=1;exitY=0.5;exitDx=0;exitDy=0;entryX=0;entryY=0.5;entryDx=0;entryDy=0;" edge="1" parent="1" source="VjNuqhSshOlq6rkJovFf-11" target="VjNuqhSshOlq6rkJovFf-4">
          <mxGeometry width="50" height="50" relative="1" as="geometry">
            <mxPoint x="100" y="250" as="sourcePoint" />
            <mxPoint x="150" y="200" as="targetPoint" />
          </mxGeometry>
        </mxCell>
        <mxCell id="VjNuqhSshOlq6rkJovFf-15" value="" style="endArrow=none;html=1;rounded=0;exitX=1;exitY=0.5;exitDx=0;exitDy=0;entryX=0;entryY=0;entryDx=0;entryDy=0;" edge="1" parent="1" source="VjNuqhSshOlq6rkJovFf-10" target="VjNuqhSshOlq6rkJovFf-4">
          <mxGeometry width="50" height="50" relative="1" as="geometry">
            <mxPoint x="100" y="200" as="sourcePoint" />
            <mxPoint x="150" y="150" as="targetPoint" />
          </mxGeometry>
        </mxCell>
        <mxCell id="VjNuqhSshOlq6rkJovFf-16" value="&lt;span style=&quot;color: rgba(0, 0, 0, 0); font-family: sans-serif; font-size: 16.5px; font-style: normal; font-variant-ligatures: common-ligatures; font-variant-caps: normal; font-weight: 400; letter-spacing: normal; orphans: 2; text-align: center; text-indent: 0px; text-transform: none; widows: 2; word-spacing: 0px; -webkit-text-stroke-width: 0px; white-space: pre; text-decoration-thickness: initial; text-decoration-style: initial; text-decoration-color: initial; float: none; display: inline !important;&quot;&gt;leg_no&lt;/span&gt;" style="ellipse;whiteSpace=wrap;html=1;" vertex="1" parent="1">
          <mxGeometry x="560" y="100" width="90" height="30" as="geometry" />
        </mxCell>
        <mxCell id="VjNuqhSshOlq6rkJovFf-17" value="" style="endArrow=none;html=1;rounded=0;entryX=0.411;entryY=1.092;entryDx=0;entryDy=0;exitX=0.75;exitY=0;exitDx=0;exitDy=0;entryPerimeter=0;" edge="1" parent="1" source="VjNuqhSshOlq6rkJovFf-5" target="VjNuqhSshOlq6rkJovFf-16">
          <mxGeometry width="50" height="50" relative="1" as="geometry">
            <mxPoint x="510" y="260" as="sourcePoint" />
            <mxPoint x="560" y="210" as="targetPoint" />
          </mxGeometry>
        </mxCell>
        <mxCell id="VjNuqhSshOlq6rkJovFf-18" value="&lt;span style=&quot;color: rgba(0, 0, 0, 0); font-family: sans-serif; font-size: 16.5px; font-style: normal; font-variant-ligatures: common-ligatures; font-variant-caps: normal; font-weight: 400; letter-spacing: normal; orphans: 2; text-align: center; text-indent: 0px; text-transform: none; widows: 2; word-spacing: 0px; -webkit-text-stroke-width: 0px; white-space: pre; text-decoration-thickness: initial; text-decoration-style: initial; text-decoration-color: initial; float: none; display: inline !important;&quot;&gt;scheduled_dep_time&lt;/span&gt;" style="ellipse;whiteSpace=wrap;html=1;" vertex="1" parent="1">
          <mxGeometry x="680" y="135" width="190" height="40" as="geometry" />
        </mxCell>
        <mxCell id="VjNuqhSshOlq6rkJovFf-19" value="" style="endArrow=none;html=1;rounded=0;entryX=1;entryY=0;entryDx=0;entryDy=0;exitX=0;exitY=0.5;exitDx=0;exitDy=0;" edge="1" parent="1" source="VjNuqhSshOlq6rkJovFf-18" target="VjNuqhSshOlq6rkJovFf-5">
          <mxGeometry width="50" height="50" relative="1" as="geometry">
            <mxPoint x="470" y="320" as="sourcePoint" />
            <mxPoint x="520" y="270" as="targetPoint" />
          </mxGeometry>
        </mxCell>
        <mxCell id="VjNuqhSshOlq6rkJovFf-20" value="&lt;span style=&quot;color: rgba(0, 0, 0, 0); font-family: sans-serif; font-size: 16.5px; font-style: normal; font-variant-ligatures: common-ligatures; font-variant-caps: normal; font-weight: 400; letter-spacing: normal; orphans: 2; text-align: center; text-indent: 0px; text-transform: none; widows: 2; word-spacing: 0px; -webkit-text-stroke-width: 0px; white-space: pre; text-decoration-thickness: initial; text-decoration-style: initial; text-decoration-color: initial; float: none; display: inline !important;&quot;&gt;scheduled_arr_time&lt;/span&gt;" style="ellipse;whiteSpace=wrap;html=1;" vertex="1" parent="1">
          <mxGeometry x="365" y="100" width="180" height="50" as="geometry" />
        </mxCell>
        <mxCell id="VjNuqhSshOlq6rkJovFf-21" value="" style="endArrow=none;html=1;rounded=0;entryX=0.5;entryY=1;entryDx=0;entryDy=0;exitX=0.25;exitY=0;exitDx=0;exitDy=0;" edge="1" parent="1" source="VjNuqhSshOlq6rkJovFf-5" target="VjNuqhSshOlq6rkJovFf-20">
          <mxGeometry width="50" height="50" relative="1" as="geometry">
            <mxPoint x="520" y="130" as="sourcePoint" />
            <mxPoint x="570" y="80" as="targetPoint" />
          </mxGeometry>
        </mxCell>
        <mxCell id="VjNuqhSshOlq6rkJovFf-22" value="&lt;span style=&quot;color: rgba(0, 0, 0, 0); font-family: sans-serif; font-size: 16.5px; font-style: normal; font-variant-ligatures: common-ligatures; font-variant-caps: normal; font-weight: 400; letter-spacing: normal; orphans: 2; text-align: center; text-indent: 0px; text-transform: none; widows: 2; word-spacing: 0px; -webkit-text-stroke-width: 0px; white-space: pre; text-decoration-thickness: initial; text-decoration-style: initial; text-decoration-color: initial; float: none; display: inline !important;&quot;&gt;Arrival time&lt;/span&gt;" style="ellipse;whiteSpace=wrap;html=1;" vertex="1" parent="1">
          <mxGeometry x="640" y="295" width="100" height="40" as="geometry" />
        </mxCell>
        <mxCell id="VjNuqhSshOlq6rkJovFf-23" value="" style="endArrow=none;html=1;rounded=0;entryX=0;entryY=0.5;entryDx=0;entryDy=0;exitX=1;exitY=0.5;exitDx=0;exitDy=0;" edge="1" parent="1" source="VjNuqhSshOlq6rkJovFf-3" target="VjNuqhSshOlq6rkJovFf-22">
          <mxGeometry width="50" height="50" relative="1" as="geometry">
            <mxPoint x="570" y="470" as="sourcePoint" />
            <mxPoint x="620" y="420" as="targetPoint" />
          </mxGeometry>
        </mxCell>
        <mxCell id="VjNuqhSshOlq6rkJovFf-24" value="Departure Time" style="ellipse;whiteSpace=wrap;html=1;" vertex="1" parent="1">
          <mxGeometry x="620" y="250" width="100" height="40" as="geometry" />
        </mxCell>
        <mxCell id="VjNuqhSshOlq6rkJovFf-25" value="" style="endArrow=none;html=1;rounded=0;exitX=1;exitY=0;exitDx=0;exitDy=0;entryX=0;entryY=0.5;entryDx=0;entryDy=0;" edge="1" parent="1" source="VjNuqhSshOlq6rkJovFf-3" target="VjNuqhSshOlq6rkJovFf-24">
          <mxGeometry width="50" height="50" relative="1" as="geometry">
            <mxPoint x="580" y="340" as="sourcePoint" />
            <mxPoint x="630" y="290" as="targetPoint" />
          </mxGeometry>
        </mxCell>
        <mxCell id="VjNuqhSshOlq6rkJovFf-26" value="&lt;span style=&quot;box-sizing: inherit; color: rgba(0, 0, 0, 0); white-space: pre; cursor: text; transform-origin: 0px 0px; position: absolute; font-variant-ligatures: common-ligatures; left: 135.113px; top: 641.655px; font-size: 16.5px; font-family: sans-serif; transform: scaleX(1.02244);&quot; dir=&quot;ltr&quot; role=&quot;presentation&quot;&gt;Number of available seats&lt;/span&gt;&lt;div&gt;&lt;span style=&quot;box-sizing: inherit; color: rgba(0, 0, 0, 0); white-space: pre; cursor: text; transform-origin: 0px 0px; position: absolute; font-variant-ligatures: common-ligatures; left: 135.113px; top: 641.655px; font-size: 16.5px; font-family: sans-serif; transform: scaleX(1.02244);&quot; dir=&quot;ltr&quot; role=&quot;presentation&quot;&gt;Number of available seats&lt;/span&gt;&lt;/div&gt;&lt;div&gt;Number Of Available Seats&lt;/div&gt;" style="ellipse;whiteSpace=wrap;html=1;" vertex="1" parent="1">
          <mxGeometry x="615" y="355" width="100" height="50" as="geometry" />
        </mxCell>
        <mxCell id="VjNuqhSshOlq6rkJovFf-27" value="" style="endArrow=none;html=1;rounded=0;entryX=1;entryY=1;entryDx=0;entryDy=0;exitX=0;exitY=0;exitDx=0;exitDy=0;" edge="1" parent="1" source="VjNuqhSshOlq6rkJovFf-26" target="VjNuqhSshOlq6rkJovFf-3">
          <mxGeometry width="50" height="50" relative="1" as="geometry">
            <mxPoint x="520" y="500" as="sourcePoint" />
            <mxPoint x="570" y="450" as="targetPoint" />
          </mxGeometry>
        </mxCell>
        <mxCell id="VjNuqhSshOlq6rkJovFf-28" value="Type_Name" style="ellipse;whiteSpace=wrap;html=1;" vertex="1" parent="1">
          <mxGeometry x="45" y="460" width="80" height="50" as="geometry" />
        </mxCell>
        <mxCell id="VjNuqhSshOlq6rkJovFf-29" value="" style="endArrow=none;html=1;rounded=0;entryX=0;entryY=0;entryDx=0;entryDy=0;exitX=1;exitY=1;exitDx=0;exitDy=0;" edge="1" parent="1" source="VjNuqhSshOlq6rkJovFf-28" target="VjNuqhSshOlq6rkJovFf-7">
          <mxGeometry width="50" height="50" relative="1" as="geometry">
            <mxPoint x="110" y="480" as="sourcePoint" />
            <mxPoint x="160" y="430" as="targetPoint" />
          </mxGeometry>
        </mxCell>
        <mxCell id="VjNuqhSshOlq6rkJovFf-30" value="Company" style="ellipse;whiteSpace=wrap;html=1;" vertex="1" parent="1">
          <mxGeometry x="25" y="545" width="90" height="30" as="geometry" />
        </mxCell>
        <mxCell id="VjNuqhSshOlq6rkJovFf-31" value="" style="endArrow=none;html=1;rounded=0;exitX=1;exitY=0.5;exitDx=0;exitDy=0;entryX=0;entryY=0.5;entryDx=0;entryDy=0;" edge="1" parent="1" source="VjNuqhSshOlq6rkJovFf-30" target="VjNuqhSshOlq6rkJovFf-7">
          <mxGeometry width="50" height="50" relative="1" as="geometry">
            <mxPoint x="400" y="490" as="sourcePoint" />
            <mxPoint x="450" y="440" as="targetPoint" />
          </mxGeometry>
        </mxCell>
        <mxCell id="VjNuqhSshOlq6rkJovFf-32" value="Max_Seats" style="ellipse;whiteSpace=wrap;html=1;" vertex="1" parent="1">
          <mxGeometry x="55" y="620" width="90" height="40" as="geometry" />
        </mxCell>
        <mxCell id="VjNuqhSshOlq6rkJovFf-33" value="" style="endArrow=none;html=1;rounded=0;exitX=1;exitY=0;exitDx=0;exitDy=0;entryX=0;entryY=1;entryDx=0;entryDy=0;" edge="1" parent="1" source="VjNuqhSshOlq6rkJovFf-32" target="VjNuqhSshOlq6rkJovFf-7">
          <mxGeometry width="50" height="50" relative="1" as="geometry">
            <mxPoint x="170" y="570" as="sourcePoint" />
            <mxPoint x="220" y="520" as="targetPoint" />
          </mxGeometry>
        </mxCell>
        <mxCell id="VjNuqhSshOlq6rkJovFf-34" value="Airplaine_id" style="ellipse;whiteSpace=wrap;html=1;" vertex="1" parent="1">
          <mxGeometry x="445" y="640" width="100" height="40" as="geometry" />
        </mxCell>
        <mxCell id="VjNuqhSshOlq6rkJovFf-35" value="" style="endArrow=none;html=1;rounded=0;entryX=0.25;entryY=1;entryDx=0;entryDy=0;exitX=0.5;exitY=0;exitDx=0;exitDy=0;" edge="1" parent="1" source="VjNuqhSshOlq6rkJovFf-34" target="VjNuqhSshOlq6rkJovFf-1">
          <mxGeometry width="50" height="50" relative="1" as="geometry">
            <mxPoint x="430" y="780" as="sourcePoint" />
            <mxPoint x="480" y="730" as="targetPoint" />
          </mxGeometry>
        </mxCell>
        <mxCell id="VjNuqhSshOlq6rkJovFf-36" value="Total Number Of Seats" style="ellipse;whiteSpace=wrap;html=1;" vertex="1" parent="1">
          <mxGeometry x="610" y="620" width="110" height="50" as="geometry" />
        </mxCell>
        <mxCell id="VjNuqhSshOlq6rkJovFf-37" value="" style="endArrow=none;html=1;rounded=0;exitX=1;exitY=1;exitDx=0;exitDy=0;entryX=0;entryY=0;entryDx=0;entryDy=0;" edge="1" parent="1" source="VjNuqhSshOlq6rkJovFf-1" target="VjNuqhSshOlq6rkJovFf-36">
          <mxGeometry width="50" height="50" relative="1" as="geometry">
            <mxPoint x="550" y="750" as="sourcePoint" />
            <mxPoint x="600" y="700" as="targetPoint" />
          </mxGeometry>
        </mxCell>
        <mxCell id="VjNuqhSshOlq6rkJovFf-38" value="Seat&lt;br&gt;&lt;div&gt;&amp;amp;&lt;br&gt;Reservation&lt;/div&gt;" style="rhombus;whiteSpace=wrap;html=1;" vertex="1" parent="1">
          <mxGeometry x="360" y="300" width="110" height="100" as="geometry" />
        </mxCell>
        <mxCell id="VjNuqhSshOlq6rkJovFf-39" value="" style="shape=link;html=1;rounded=0;entryX=0.5;entryY=1;entryDx=0;entryDy=0;exitX=0.5;exitY=0;exitDx=0;exitDy=0;" edge="1" parent="1" source="VjNuqhSshOlq6rkJovFf-40" target="VjNuqhSshOlq6rkJovFf-2">
          <mxGeometry width="100" relative="1" as="geometry">
            <mxPoint x="240" y="660" as="sourcePoint" />
            <mxPoint x="280" y="670" as="targetPoint" />
          </mxGeometry>
        </mxCell>
        <mxCell id="VjNuqhSshOlq6rkJovFf-40" value="Fare" style="rounded=0;whiteSpace=wrap;html=1;labelBorderColor=default;" vertex="1" parent="1">
          <mxGeometry x="930" y="275" width="70" height="30" as="geometry" />
        </mxCell>
        <mxCell id="VjNuqhSshOlq6rkJovFf-41" value="Code" style="ellipse;whiteSpace=wrap;html=1;" vertex="1" parent="1">
          <mxGeometry x="910" y="365" width="60" height="30" as="geometry" />
        </mxCell>
        <mxCell id="VjNuqhSshOlq6rkJovFf-42" value="" style="endArrow=none;html=1;rounded=0;entryX=0;entryY=1;entryDx=0;entryDy=0;exitX=0.5;exitY=0;exitDx=0;exitDy=0;" edge="1" parent="1" source="VjNuqhSshOlq6rkJovFf-41" target="VjNuqhSshOlq6rkJovFf-40">
          <mxGeometry width="50" height="50" relative="1" as="geometry">
            <mxPoint x="200" y="740" as="sourcePoint" />
            <mxPoint x="160" y="700" as="targetPoint" />
          </mxGeometry>
        </mxCell>
        <mxCell id="VjNuqhSshOlq6rkJovFf-43" value="Amount" style="ellipse;whiteSpace=wrap;html=1;" vertex="1" parent="1">
          <mxGeometry x="1035" y="300" width="60" height="40" as="geometry" />
        </mxCell>
        <mxCell id="VjNuqhSshOlq6rkJovFf-44" value="" style="endArrow=none;html=1;rounded=0;exitX=1;exitY=1;exitDx=0;exitDy=0;entryX=0.5;entryY=0;entryDx=0;entryDy=0;" edge="1" parent="1" source="VjNuqhSshOlq6rkJovFf-40" target="VjNuqhSshOlq6rkJovFf-43">
          <mxGeometry width="50" height="50" relative="1" as="geometry">
            <mxPoint x="330" y="700" as="sourcePoint" />
            <mxPoint x="380" y="650" as="targetPoint" />
          </mxGeometry>
        </mxCell>
        <mxCell id="VjNuqhSshOlq6rkJovFf-45" value="Airline" style="ellipse;whiteSpace=wrap;html=1;" vertex="1" parent="1">
          <mxGeometry x="1150" y="160" width="60" height="40" as="geometry" />
        </mxCell>
        <mxCell id="VjNuqhSshOlq6rkJovFf-46" value="" style="endArrow=none;html=1;rounded=0;exitX=0;exitY=0.5;exitDx=0;exitDy=0;entryX=1;entryY=0.5;entryDx=0;entryDy=0;" edge="1" parent="1" source="VjNuqhSshOlq6rkJovFf-45" target="VjNuqhSshOlq6rkJovFf-2">
          <mxGeometry width="50" height="50" relative="1" as="geometry">
            <mxPoint x="190" y="600" as="sourcePoint" />
            <mxPoint x="240" y="550" as="targetPoint" />
          </mxGeometry>
        </mxCell>
        <mxCell id="VjNuqhSshOlq6rkJovFf-47" value="Weekdays" style="ellipse;whiteSpace=wrap;html=1;" vertex="1" parent="1">
          <mxGeometry x="925" y="90" width="80" height="50" as="geometry" />
        </mxCell>
        <mxCell id="VjNuqhSshOlq6rkJovFf-48" value="" style="endArrow=none;html=1;rounded=0;exitX=0.5;exitY=0;exitDx=0;exitDy=0;entryX=0.5;entryY=1;entryDx=0;entryDy=0;" edge="1" parent="1" source="VjNuqhSshOlq6rkJovFf-2" target="VjNuqhSshOlq6rkJovFf-47">
          <mxGeometry width="50" height="50" relative="1" as="geometry">
            <mxPoint x="370" y="580" as="sourcePoint" />
            <mxPoint x="420" y="530" as="targetPoint" />
          </mxGeometry>
        </mxCell>
        <mxCell id="VjNuqhSshOlq6rkJovFf-49" value="Restrictions" style="ellipse;whiteSpace=wrap;html=1;" vertex="1" parent="1">
          <mxGeometry x="1020" y="110" width="90" height="50" as="geometry" />
        </mxCell>
        <mxCell id="VjNuqhSshOlq6rkJovFf-50" value="" style="endArrow=none;html=1;rounded=0;exitX=1;exitY=0;exitDx=0;exitDy=0;entryX=0;entryY=1;entryDx=0;entryDy=0;" edge="1" parent="1" source="VjNuqhSshOlq6rkJovFf-2" target="VjNuqhSshOlq6rkJovFf-49">
          <mxGeometry width="50" height="50" relative="1" as="geometry">
            <mxPoint x="310" y="570" as="sourcePoint" />
            <mxPoint x="360" y="520" as="targetPoint" />
          </mxGeometry>
        </mxCell>
        <mxCell id="VjNuqhSshOlq6rkJovFf-51" value="Departure/&lt;br&gt;Arrival" style="rhombus;whiteSpace=wrap;html=1;" vertex="1" parent="1">
          <mxGeometry x="335" y="175" width="90" height="90" as="geometry" />
        </mxCell>
        <mxCell id="VjNuqhSshOlq6rkJovFf-52" value="" style="endArrow=none;html=1;rounded=0;entryX=1;entryY=0.5;entryDx=0;entryDy=0;exitX=0;exitY=0.5;exitDx=0;exitDy=0;" edge="1" parent="1" source="VjNuqhSshOlq6rkJovFf-51" target="VjNuqhSshOlq6rkJovFf-4">
          <mxGeometry width="50" height="50" relative="1" as="geometry">
            <mxPoint x="410" y="260" as="sourcePoint" />
            <mxPoint x="460" y="210" as="targetPoint" />
          </mxGeometry>
        </mxCell>
        <mxCell id="VjNuqhSshOlq6rkJovFf-79" value="1" style="edgeLabel;html=1;align=center;verticalAlign=middle;resizable=0;points=[];" vertex="1" connectable="0" parent="VjNuqhSshOlq6rkJovFf-52">
          <mxGeometry x="-0.0333" y="1" relative="1" as="geometry">
            <mxPoint x="-1" as="offset" />
          </mxGeometry>
        </mxCell>
        <mxCell id="VjNuqhSshOlq6rkJovFf-53" value="" style="endArrow=none;html=1;rounded=0;entryX=0;entryY=0.5;entryDx=0;entryDy=0;exitX=1;exitY=0.5;exitDx=0;exitDy=0;" edge="1" parent="1" source="VjNuqhSshOlq6rkJovFf-51" target="VjNuqhSshOlq6rkJovFf-5">
          <mxGeometry width="50" height="50" relative="1" as="geometry">
            <mxPoint x="485" y="370" as="sourcePoint" />
            <mxPoint x="485" y="390.71067811865476" as="targetPoint" />
          </mxGeometry>
        </mxCell>
        <mxCell id="VjNuqhSshOlq6rkJovFf-80" value="M" style="edgeLabel;html=1;align=center;verticalAlign=middle;resizable=0;points=[];" vertex="1" connectable="0" parent="VjNuqhSshOlq6rkJovFf-53">
          <mxGeometry x="-0.0778" y="-1" relative="1" as="geometry">
            <mxPoint x="-1" as="offset" />
          </mxGeometry>
        </mxCell>
        <mxCell id="VjNuqhSshOlq6rkJovFf-54" value="Allow&lt;br&gt;Landing" style="rhombus;whiteSpace=wrap;html=1;" vertex="1" parent="1">
          <mxGeometry x="187.5" y="370" width="80" height="80" as="geometry" />
        </mxCell>
        <mxCell id="VjNuqhSshOlq6rkJovFf-55" value="" style="shape=link;html=1;rounded=0;exitX=0.5;exitY=1;exitDx=0;exitDy=0;entryX=0.5;entryY=0;entryDx=0;entryDy=0;" edge="1" parent="1" source="VjNuqhSshOlq6rkJovFf-5" target="VjNuqhSshOlq6rkJovFf-3">
          <mxGeometry width="100" relative="1" as="geometry">
            <mxPoint x="460" y="280" as="sourcePoint" />
            <mxPoint x="560" y="280" as="targetPoint" />
          </mxGeometry>
        </mxCell>
        <mxCell id="VjNuqhSshOlq6rkJovFf-56" value="" style="endArrow=none;html=1;rounded=0;exitX=0.5;exitY=0;exitDx=0;exitDy=0;entryX=0.5;entryY=1;entryDx=0;entryDy=0;" edge="1" parent="1" source="VjNuqhSshOlq6rkJovFf-54" target="VjNuqhSshOlq6rkJovFf-4">
          <mxGeometry width="50" height="50" relative="1" as="geometry">
            <mxPoint x="330" y="350" as="sourcePoint" />
            <mxPoint x="380" y="300" as="targetPoint" />
          </mxGeometry>
        </mxCell>
        <mxCell id="VjNuqhSshOlq6rkJovFf-78" value="M" style="edgeLabel;html=1;align=center;verticalAlign=middle;resizable=0;points=[];" vertex="1" connectable="0" parent="VjNuqhSshOlq6rkJovFf-56">
          <mxGeometry x="0.0373" y="1" relative="1" as="geometry">
            <mxPoint as="offset" />
          </mxGeometry>
        </mxCell>
        <mxCell id="VjNuqhSshOlq6rkJovFf-57" value="" style="endArrow=none;html=1;rounded=0;exitX=0.5;exitY=1;exitDx=0;exitDy=0;entryX=0.5;entryY=0;entryDx=0;entryDy=0;" edge="1" parent="1" source="VjNuqhSshOlq6rkJovFf-54" target="VjNuqhSshOlq6rkJovFf-7">
          <mxGeometry width="50" height="50" relative="1" as="geometry">
            <mxPoint x="280" y="420" as="sourcePoint" />
            <mxPoint x="330" y="370" as="targetPoint" />
          </mxGeometry>
        </mxCell>
        <mxCell id="VjNuqhSshOlq6rkJovFf-77" value="M" style="edgeLabel;html=1;align=center;verticalAlign=middle;resizable=0;points=[];" vertex="1" connectable="0" parent="VjNuqhSshOlq6rkJovFf-57">
          <mxGeometry x="-0.0875" y="2" relative="1" as="geometry">
            <mxPoint as="offset" />
          </mxGeometry>
        </mxCell>
        <mxCell id="VjNuqhSshOlq6rkJovFf-58" value="Assigned" style="rhombus;whiteSpace=wrap;html=1;" vertex="1" parent="1">
          <mxGeometry x="520" y="400" width="80" height="80" as="geometry" />
        </mxCell>
        <mxCell id="VjNuqhSshOlq6rkJovFf-59" value="1" style="endArrow=none;html=1;rounded=0;entryX=0.5;entryY=1;entryDx=0;entryDy=0;exitX=0.5;exitY=0;exitDx=0;exitDy=0;" edge="1" parent="1" source="VjNuqhSshOlq6rkJovFf-58" target="VjNuqhSshOlq6rkJovFf-3">
          <mxGeometry width="50" height="50" relative="1" as="geometry">
            <mxPoint x="460" y="380" as="sourcePoint" />
            <mxPoint x="510" y="330" as="targetPoint" />
          </mxGeometry>
        </mxCell>
        <mxCell id="VjNuqhSshOlq6rkJovFf-60" value="1" style="endArrow=none;html=1;rounded=0;entryX=0.5;entryY=0;entryDx=0;entryDy=0;" edge="1" parent="1" source="VjNuqhSshOlq6rkJovFf-58" target="VjNuqhSshOlq6rkJovFf-1">
          <mxGeometry width="50" height="50" relative="1" as="geometry">
            <mxPoint x="480" y="510" as="sourcePoint" />
            <mxPoint x="480" y="530.7106781186548" as="targetPoint" />
          </mxGeometry>
        </mxCell>
        <mxCell id="VjNuqhSshOlq6rkJovFf-61" value="Customer" style="rounded=0;whiteSpace=wrap;html=1;" vertex="1" parent="1">
          <mxGeometry x="375" y="430" width="80" height="40" as="geometry" />
        </mxCell>
        <mxCell id="VjNuqhSshOlq6rkJovFf-62" value="" style="endArrow=none;html=1;rounded=0;exitX=0.5;exitY=0;exitDx=0;exitDy=0;entryX=0;entryY=0.5;entryDx=0;entryDy=0;" edge="1" parent="1" source="VjNuqhSshOlq6rkJovFf-38" target="VjNuqhSshOlq6rkJovFf-3">
          <mxGeometry width="50" height="50" relative="1" as="geometry">
            <mxPoint x="450" y="290" as="sourcePoint" />
            <mxPoint x="500" y="240" as="targetPoint" />
          </mxGeometry>
        </mxCell>
        <mxCell id="VjNuqhSshOlq6rkJovFf-81" value="1" style="edgeLabel;html=1;align=center;verticalAlign=middle;resizable=0;points=[];" vertex="1" connectable="0" parent="VjNuqhSshOlq6rkJovFf-62">
          <mxGeometry x="0.064" y="-1" relative="1" as="geometry">
            <mxPoint x="-1" as="offset" />
          </mxGeometry>
        </mxCell>
        <mxCell id="VjNuqhSshOlq6rkJovFf-63" value="" style="endArrow=none;html=1;rounded=0;entryX=0.5;entryY=1;entryDx=0;entryDy=0;exitX=0.5;exitY=0;exitDx=0;exitDy=0;" edge="1" parent="1" source="VjNuqhSshOlq6rkJovFf-61" target="VjNuqhSshOlq6rkJovFf-38">
          <mxGeometry width="50" height="50" relative="1" as="geometry">
            <mxPoint x="310" y="440" as="sourcePoint" />
            <mxPoint x="360" y="390" as="targetPoint" />
          </mxGeometry>
        </mxCell>
        <mxCell id="VjNuqhSshOlq6rkJovFf-83" value="M" style="edgeLabel;html=1;align=center;verticalAlign=middle;resizable=0;points=[];" vertex="1" connectable="0" parent="VjNuqhSshOlq6rkJovFf-63">
          <mxGeometry x="0.2333" y="1" relative="1" as="geometry">
            <mxPoint as="offset" />
          </mxGeometry>
        </mxCell>
        <mxCell id="VjNuqhSshOlq6rkJovFf-64" value="Belongs" style="rhombus;whiteSpace=wrap;html=1;" vertex="1" parent="1">
          <mxGeometry x="360" y="520" width="80" height="80" as="geometry" />
        </mxCell>
        <mxCell id="VjNuqhSshOlq6rkJovFf-65" value="" style="endArrow=none;html=1;rounded=0;entryX=0;entryY=0.5;entryDx=0;entryDy=0;exitX=1;exitY=0.5;exitDx=0;exitDy=0;" edge="1" parent="1" source="VjNuqhSshOlq6rkJovFf-64" target="VjNuqhSshOlq6rkJovFf-1">
          <mxGeometry width="50" height="50" relative="1" as="geometry">
            <mxPoint x="440" y="590" as="sourcePoint" />
            <mxPoint x="510.71067811865476" y="540" as="targetPoint" />
          </mxGeometry>
        </mxCell>
        <mxCell id="VjNuqhSshOlq6rkJovFf-66" value="" style="endArrow=none;html=1;rounded=0;entryX=1;entryY=0.5;entryDx=0;entryDy=0;exitX=0;exitY=0.5;exitDx=0;exitDy=0;" edge="1" parent="1" source="VjNuqhSshOlq6rkJovFf-64" target="VjNuqhSshOlq6rkJovFf-7">
          <mxGeometry width="50" height="50" relative="1" as="geometry">
            <mxPoint x="289.28932188134524" y="590" as="sourcePoint" />
            <mxPoint x="289.28932188134524" y="540" as="targetPoint" />
          </mxGeometry>
        </mxCell>
        <mxCell id="VjNuqhSshOlq6rkJovFf-67" value="Name" style="ellipse;whiteSpace=wrap;html=1;" vertex="1" parent="1">
          <mxGeometry x="375" y="490" width="80" height="30" as="geometry" />
        </mxCell>
        <mxCell id="VjNuqhSshOlq6rkJovFf-68" value="" style="endArrow=none;html=1;rounded=0;exitX=0.5;exitY=1;exitDx=0;exitDy=0;entryX=0.5;entryY=0;entryDx=0;entryDy=0;" edge="1" parent="1" source="VjNuqhSshOlq6rkJovFf-61" target="VjNuqhSshOlq6rkJovFf-67">
          <mxGeometry width="50" height="50" relative="1" as="geometry">
            <mxPoint x="470" y="460" as="sourcePoint" />
            <mxPoint x="520" y="410" as="targetPoint" />
          </mxGeometry>
        </mxCell>
        <mxCell id="VjNuqhSshOlq6rkJovFf-69" value="Phone" style="ellipse;whiteSpace=wrap;html=1;" vertex="1" parent="1">
          <mxGeometry x="280" y="430" width="70" height="40" as="geometry" />
        </mxCell>
        <mxCell id="VjNuqhSshOlq6rkJovFf-70" value="" style="endArrow=none;html=1;rounded=0;entryX=1;entryY=0.5;entryDx=0;entryDy=0;exitX=0;exitY=0.5;exitDx=0;exitDy=0;" edge="1" parent="1" source="VjNuqhSshOlq6rkJovFf-61" target="VjNuqhSshOlq6rkJovFf-69">
          <mxGeometry width="50" height="50" relative="1" as="geometry">
            <mxPoint x="320" y="490" as="sourcePoint" />
            <mxPoint x="370" y="440" as="targetPoint" />
          </mxGeometry>
        </mxCell>
        <mxCell id="VjNuqhSshOlq6rkJovFf-72" value="Include" style="rhombus;whiteSpace=wrap;html=1;" vertex="1" parent="1">
          <mxGeometry x="760" y="180" width="80" height="70" as="geometry" />
        </mxCell>
        <mxCell id="VjNuqhSshOlq6rkJovFf-74" value="1" style="endArrow=none;html=1;rounded=0;exitX=1;exitY=0.5;exitDx=0;exitDy=0;entryX=0;entryY=0.5;entryDx=0;entryDy=0;" edge="1" parent="1" source="VjNuqhSshOlq6rkJovFf-72" target="VjNuqhSshOlq6rkJovFf-2">
          <mxGeometry width="50" height="50" relative="1" as="geometry">
            <mxPoint x="730" y="460" as="sourcePoint" />
            <mxPoint x="780" y="410" as="targetPoint" />
          </mxGeometry>
        </mxCell>
        <mxCell id="VjNuqhSshOlq6rkJovFf-76" value="1" style="endArrow=none;html=1;rounded=0;entryX=0;entryY=0.5;entryDx=0;entryDy=0;exitX=1;exitY=0.5;exitDx=0;exitDy=0;" edge="1" parent="1" source="VjNuqhSshOlq6rkJovFf-5" target="VjNuqhSshOlq6rkJovFf-72">
          <mxGeometry width="50" height="50" relative="1" as="geometry">
            <mxPoint x="770" y="270" as="sourcePoint" />
            <mxPoint x="820" y="220" as="targetPoint" />
          </mxGeometry>
        </mxCell>
      </root>
    </mxGraphModel>
  </diagram>
</mxfile>
